<?xml version="1.0" encoding="UTF-8" standalone="no"?><!-- Generator: Gravit.io --><svg xmlns="http://www.w3.org/2000/svg" xmlns:xlink="http://www.w3.org/1999/xlink" style="isolation:isolate" viewBox="400 200 100 100" width="100pt" height="100pt"><g><rect x="400" y="200" width="100" height="100" transform="matrix(1,0,0,1,0,0)" fill="none"/><path d=" M 460.537 248.411 L 460.537 248.413 L 460.537 248.413 C 458.491 248.418 456.639 248.564 456.366 248.743 L 456.366 248.743 L 449.853 250.999 C 449.245 251.397 448.288 251.271 447.718 250.72 L 443.782 248.911 C 443.497 248.635 443.004 248.411 442.68 248.411 L 441.951 248.411 L 441.951 248.413 L 441.951 248.413 C 439.906 248.418 438.054 248.564 437.78 248.743 L 437.78 248.743 L 431.267 250.999 C 430.659 251.397 429.703 251.271 429.133 250.72 L 425.197 248.911 C 424.912 248.635 424.418 248.411 424.095 248.411 L 422.103 248.411 C 420.942 248.411 420 247.468 420 246.308 L 420 242.552 C 420 241.391 420.942 240.449 422.103 240.449 L 424.719 240.449 C 425.043 240.449 425.541 240.655 425.832 240.91 L 430.331 242.843 C 430.768 243.225 431.486 243.265 431.935 242.933 L 437.458 240.849 C 437.757 240.628 438.262 240.449 438.585 240.449 L 438.585 240.449 L 443.305 240.449 C 443.628 240.449 444.127 240.655 444.417 240.91 L 448.916 242.843 C 449.353 243.225 450.072 243.265 450.52 242.933 L 456.043 240.849 C 456.342 240.628 456.848 240.449 457.171 240.449 L 460.537 240.449 L 460.537 240.449 L 462.768 240.449 C 463.091 240.449 463.59 240.655 463.881 240.91 L 468.38 242.843 C 468.816 243.225 469.535 243.265 469.984 242.933 L 475.507 240.849 C 475.806 240.628 476.311 240.449 476.634 240.449 L 477.897 240.449 C 479.058 240.449 480 241.391 480 242.552 L 480 246.309 C 480 247.47 479.083 248.415 477.954 248.418 C 477.954 248.418 476.103 248.564 475.829 248.743 L 475.829 248.743 L 469.316 250.999 C 468.708 251.397 467.752 251.271 467.182 250.72 L 463.246 248.911 C 462.961 248.635 462.467 248.411 462.144 248.411 L 460.537 248.411 L 460.537 248.411 L 460.537 248.411 L 460.537 248.411 L 460.537 248.411 L 460.537 248.411 L 460.537 248.411 L 460.537 248.411 L 460.537 248.411 Z  M 422.108 262.231 L 477.892 262.231 C 479.055 262.231 480 263.176 480 264.34 L 480 268.123 C 480 269.287 479.055 270.231 477.892 270.231 L 445.177 270.231 C 444.626 270.231 443.754 270.377 443.232 270.557 L 431.097 274.733 C 430.053 275.092 428.788 274.591 428.273 273.614 L 427.131 271.448 L 426.956 271.116 C 426.699 270.628 426.042 270.231 425.49 270.231 L 422.108 270.231 C 420.945 270.231 420 269.287 420 268.123 L 420 264.34 C 420 263.176 420.945 262.231 422.108 262.231 L 422.108 262.231 L 422.108 262.231 L 422.108 262.231 L 422.108 262.231 L 422.108 262.231 L 422.108 262.231 L 422.108 262.231 L 422.108 262.231 Z  M 422.108 252.231 L 477.892 252.231 C 479.055 252.231 480 253.176 480 254.34 L 480 258.123 C 480 259.287 479.055 260.231 477.892 260.231 L 422.108 260.231 C 420.945 260.231 420 259.287 420 258.123 L 420 254.34 C 420 253.176 420.945 252.231 422.108 252.231 L 422.108 252.231 L 422.108 252.231 L 422.108 252.231 L 422.108 252.231 L 422.108 252.231 L 422.108 252.231 L 422.108 252.231 Z  M 428 280.229 L 472 280.229 C 471.89 280.319 471.78 280.399 471.67 280.479 C 469.87 281.779 467.86 282.759 465.73 283.399 C 463.2 284.169 460.57 284.559 457.92 284.549 C 457.91 284.549 457.91 284.549 457.9 284.549 L 442.1 284.549 C 442.09 284.549 442.09 284.549 442.08 284.549 C 439.43 284.559 436.8 284.169 434.27 283.399 C 432.14 282.759 430.13 281.779 428.33 280.479 C 428.22 280.399 428.11 280.319 428 280.229 L 428 280.229 L 428 280.229 L 428 280.229 L 428 280.229 L 428 280.229 L 428 280.229 Z  M 446.02 226.609 C 446.02 225.416 448.037 224.449 450.52 224.449 C 453.004 224.449 455.02 225.416 455.02 226.609 C 455.02 227.801 453.004 228.769 450.52 228.769 C 448.037 228.769 446.02 227.801 446.02 226.609 L 446.02 226.609 L 446.02 226.609 L 446.02 226.609 L 446.02 226.609 Z  M 437.02 221.289 C 437.02 220.096 439.037 219.129 441.52 219.129 C 444.004 219.129 446.02 220.096 446.02 221.289 C 446.02 222.481 444.004 223.449 441.52 223.449 C 439.037 223.449 437.02 222.481 437.02 221.289 L 437.02 221.289 L 437.02 221.289 L 437.02 221.289 Z  M 430.107 226.609 C 430.107 225.416 432.124 224.449 434.607 224.449 C 437.091 224.449 439.107 225.416 439.107 226.609 C 439.107 227.801 437.091 228.769 434.607 228.769 C 432.124 228.769 430.107 227.801 430.107 226.609 L 430.107 226.609 L 430.107 226.609 Z  M 464.02 221.289 C 464.02 220.096 462.004 219.129 459.52 219.129 C 457.037 219.129 455.02 220.096 455.02 221.289 C 455.02 222.481 457.037 223.449 459.52 223.449 C 462.004 223.449 464.02 222.481 464.02 221.289 L 464.02 221.289 Z  M 417.74 272.231 L 425.332 272.231 C 425.608 272.231 425.929 272.434 426.048 272.682 L 427.617 275.964 C 428.093 276.96 429.326 277.474 430.369 277.11 L 443.426 272.56 C 443.947 272.379 444.819 272.231 445.371 272.231 L 482.26 272.231 C 483.22 272.231 484 272.8 484 273.501 L 484 273.501 C 484 284.015 472.303 292.551 457.896 292.551 L 442.104 292.551 C 427.697 292.551 416 284.015 416 273.501 L 416 273.501 C 416 272.8 416.78 272.231 417.74 272.231 L 417.74 272.231 L 417.74 272.231 L 417.74 272.231 L 417.74 272.231 L 417.74 272.231 L 417.74 272.231 Z  M 477.639 231.449 L 422.36 231.449 C 422.636 230.669 422.966 229.899 423.341 229.149 C 424.709 226.499 426.639 224.119 429.022 222.159 C 431.569 220.049 434.525 218.399 437.746 217.269 C 441.209 216.059 444.893 215.439 448.61 215.449 C 448.621 215.449 448.621 215.449 448.632 215.449 L 451.367 215.449 C 451.378 215.449 451.378 215.449 451.389 215.449 C 455.106 215.439 458.79 216.059 462.253 217.269 C 465.474 218.399 468.43 220.049 470.977 222.159 C 473.36 224.119 475.29 226.499 476.658 229.149 C 477.044 229.899 477.364 230.669 477.639 231.449 L 477.639 231.449 L 477.639 231.449 L 477.639 231.449 L 477.639 231.449 L 477.639 231.449 L 477.639 231.449 L 477.639 231.449 Z  M 448.63 207.449 L 451.37 207.449 C 471.311 207.449 487.5 220.891 487.5 237.449 L 487.5 237.449 C 487.5 238.552 486.421 239.449 485.091 239.449 L 414.909 239.449 C 413.579 239.449 412.5 238.552 412.5 237.449 L 412.5 237.449 C 412.5 220.891 428.689 207.449 448.63 207.449 L 448.63 207.449 L 448.63 207.449 L 448.63 207.449 L 448.63 207.449 L 448.63 207.449 L 448.63 207.449 L 448.63 207.449 Z  M 470.934 226.609 C 470.934 225.416 468.917 224.449 466.434 224.449 C 463.95 224.449 461.934 225.416 461.934 226.609 C 461.934 227.801 463.95 228.769 466.434 228.769 C 468.917 228.769 470.934 227.801 470.934 226.609 Z " fill-rule="evenodd"/></g></svg>
